<?xml version="1.0" encoding="UTF-8"?>
<svg version="1.1" xmlns="http://www.w3.org/2000/svg" width="3840" height="2520">
<path d="M0 0 C1267.2 0 2534.4 0 3840 0 C3840 520.74 3840 1041.48 3840 1578 C3742.98 1578.33 3645.96 1578.66 3546 1579 C3543.525 1580.485 3543.525 1580.485 3541 1582 C3533.99746051 1584.5303294 3522.5156869 1584.31072038 3515.7109375 1581.17578125 C3510.38855429 1577.51816174 3506.22605749 1572.40274468 3505 1566 C3504.46675541 1560.24095839 3505.82225966 1556.1904692 3508 1551 C3509.18301544 1548.02021592 3509.18301544 1548.02021592 3508.9140625 1544.796875 C3509.00887074 1540.60807473 3509.98398938 1537.14951854 3511.375 1533.25 C3511.70757813 1532.26193359 3511.70757813 1532.26193359 3512.046875 1531.25390625 C3513.10568572 1528.18335517 3514.18768148 1525.71847778 3516 1523 C3516.43799354 1521.04519765 3516.43799354 1521.04519765 3516.59765625 1518.89453125 C3516.71572632 1517.67793823 3516.71572632 1517.67793823 3516.83618164 1516.43676758 C3516.94820923 1515.13775513 3516.94820923 1515.13775513 3517.0625 1513.8125 C3517.18709595 1512.47578247 3517.18709595 1512.47578247 3517.31420898 1511.11206055 C3517.93883877 1504.22639241 3518.39803384 1497.33684999 3518.7734375 1490.43359375 C3518.96396835 1487.54606589 3519.27796178 1484.73700548 3519.6875 1481.875 C3520.01550377 1477.80775329 3519.33853267 1475.77938637 3518 1472 C3517.95295105 1470.64665091 3517.95823977 1469.29102261 3518 1467.9375 C3518.25887177 1455.03705684 3515.40418173 1440.62403632 3508 1430 C3507.566875 1428.906875 3507.13375 1427.81375 3506.6875 1426.6875 C3505.05271538 1422.62748546 3502.42444994 1419.5090646 3499.69921875 1416.12109375 C3496.56610866 1412.21010805 3494.01965236 1408.07516999 3491.625 1403.6875 C3489.0151955 1398.93079211 3486.10377464 1394.44767706 3483 1390 C3482.56171875 1389.36578125 3482.1234375 1388.7315625 3481.671875 1388.078125 C3470.9874803 1373.21821972 3456.38015142 1358.05633031 3438.90234375 1351.7421875 C3436.40104403 1350.76632108 3434.26634688 1349.43719558 3432 1348 C3430.5037707 1347.15991529 3429.00337558 1346.32722808 3427.5 1345.5 C3425.09688926 1344.17769524 3422.75479526 1342.84450431 3420.4375 1341.375 C3417.79176474 1339.88253396 3415.08296608 1338.83807869 3412.2265625 1337.81640625 C3409.84890553 1336.9445987 3407.52436499 1335.9755484 3405.1875 1335 C3392.80617547 1330.0588292 3380.81712969 1328.84870912 3367.57421875 1328.83203125 C3366.62416458 1328.82870285 3365.67411041 1328.82537445 3364.69526672 1328.82194519 C3362.7012276 1328.81692278 3360.70718021 1328.8145354 3358.71313477 1328.81469727 C3355.70509642 1328.81251278 3352.6974268 1328.79431179 3349.68945312 1328.77539062 C3336.41235764 1328.73581606 3323.8230403 1329.44620562 3310.9375 1332.9375 C3309.72964844 1333.25589844 3308.52179687 1333.57429688 3307.27734375 1333.90234375 C3304.15282724 1334.94881471 3301.75715911 1336.22484276 3299 1338 C3292.74305982 1340.84406372 3287.06104227 1342.87143644 3280.25 1343.75 C3274.64830488 1344.60167923 3271.04877363 1346.56322123 3266.39453125 1349.68359375 C3263.18487353 1351.4481201 3260.42954429 1351.64031655 3256.8125 1351.6015625 C3256.214375 1351.73304687 3255.61625 1351.86453125 3255 1352 C3253.86871551 1353.86641078 3253.86871551 1353.86641078 3253 1356 C3248.21140772 1360.570929 3244.35037269 1362.68978031 3237.625 1363.3125 C3230.99876012 1362.74127242 3226.69522013 1361.1464733 3222.125 1356.1875 C3217.76919179 1350.75018133 3216.33595758 1345.97244542 3217 1339 C3217.57254584 1337.07365119 3218.18135236 1335.15795208 3218.8125 1333.25 C3220.97694656 1326.67223155 3222.0760452 1320.11959261 3223.0480957 1313.27246094 C3223.91793791 1307.16412418 3223.91793791 1307.16412418 3225 1305 C3225.14482788 1303.51240886 3225.23156925 1302.01894624 3225.28808594 1300.52539062 C3225.32351501 1299.59682251 3225.35894409 1298.66825439 3225.39544678 1297.71154785 C3225.5198255 1293.43828082 3225.6101026 1289.16512593 3225.6796875 1284.890625 C3225.72627703 1282.64397426 3225.79437663 1280.39765887 3225.88476562 1278.15234375 C3227.01779188 1265.09358085 3227.01779188 1265.09358085 3222.63427734 1253.32397461 C3219.86849442 1250.78036415 3217.26105381 1248.84931597 3214 1247 C3213.3076123 1246.555354 3212.61522461 1246.11070801 3211.90185547 1245.65258789 C3210.31826757 1244.68106825 3208.66171022 1243.83085511 3207 1243 C3206.22785156 1242.51402344 3205.45570313 1242.02804687 3204.66015625 1241.52734375 C3195.29028855 1236.14758124 3183.90861048 1234.96295251 3173.37890625 1233.36328125 C3169.35232733 1232.74838496 3165.33232053 1232.09489469 3161.3125 1231.4375 C3160.58264893 1231.32269287 3159.85279785 1231.20788574 3159.10083008 1231.08959961 C3154.61732724 1230.36057055 3150.37136116 1229.25637696 3146 1228 C3143.49895346 1227.59371558 3143.49895346 1227.59371558 3141.0625 1227.4375 C3140.10214844 1227.36144531 3139.14179688 1227.28539062 3138.15234375 1227.20703125 C3136.02031049 1227.06700924 3133.88740671 1226.93975127 3131.75390625 1226.82421875 C3122.75548104 1226.33022555 3113.83502385 1225.47298173 3104.875 1224.5 C3093.52236205 1223.28359409 3082.23681726 1222.46438078 3070.82763672 1222.09277344 C3066.58857006 1221.95369164 3062.35045616 1221.79186838 3058.11230469 1221.62744141 C3055.98679106 1221.54535217 3053.86114305 1221.46663759 3051.73535156 1221.39208984 C3046.89165521 1221.21106925 3042.08641832 1220.94034342 3037.26171875 1220.46875 C3032.80207254 1220.03767348 3028.47939619 1219.92656728 3024 1220 C3019.52619939 1220.07334099 3015.23250451 1219.95571603 3010.78125 1219.5 C3004.67485281 1218.90199421 2998.62999498 1218.92478534 2992.5 1219 C2985.37357267 1219.08744083 2978.39980977 1218.9772176 2971.30859375 1218.21264648 C2968.80536588 1217.93958785 2968.80536588 1217.93958785 2965.5 1218.0625 C2962.45696075 1218.00816001 2960.04540293 1217.63348732 2957.09423828 1217.00610352 C2950.69121246 1215.81342439 2944.48820525 1215.76314218 2937.9921875 1215.83984375 C2936.78611847 1215.84504532 2935.58004944 1215.85024689 2934.33743286 1215.85560608 C2930.51649384 1215.87327772 2926.69583418 1215.90442441 2922.875 1215.9375 C2919.04705262 1215.96523875 2915.21914613 1215.98994564 2911.3911438 1216.00868225 C2909.01926172 1216.02081253 2906.64739884 1216.03828749 2904.27560425 1216.06199646 C2898.08430527 1216.09926436 2892.13911986 1215.80304316 2886 1215 C2884.39722015 1214.92136434 2882.79219665 1214.86904565 2881.1875 1214.875 C2880.47980469 1214.87242188 2879.77210938 1214.86984375 2879.04296875 1214.8671875 C2877.0039894 1214.93329354 2877.0039894 1214.93329354 2875.10766602 1215.50439453 C2871.69471056 1216.30693126 2868.23531261 1216.05598304 2864.75 1216 C2857.37370794 1215.93402646 2850.09977746 1216.22096934 2842.74609375 1216.78125 C2835.21572926 1217.22097931 2828.14521074 1216.85911527 2820.67136955 1215.94592094 C2803.25851793 1213.84220579 2786.0542277 1213.61289472 2768.53631735 1213.72874975 C2764.50040372 1213.75176295 2760.46446552 1213.75598363 2756.42849731 1213.76223755 C2748.82452345 1213.776545 2741.22068756 1213.80532348 2733.61678421 1213.84048474 C2719.96872218 1213.90310416 2706.32057559 1213.94019258 2692.67241108 1213.97207749 C2687.90103729 1213.98380328 2683.1297443 1214.00189543 2678.35841537 1214.02559257 C2675.39264812 1214.03951339 2672.42687616 1214.04930902 2669.46109009 1214.05822754 C2667.45362754 1214.06562637 2665.44618633 1214.07825344 2663.43875122 1214.09109497 C2657.01088092 1214.10671388 2650.70292148 1213.91728357 2644.30983162 1213.2286396 C2638.21434517 1212.62527545 2632.21960317 1213.05045077 2626.125 1213.5 C2618.41910248 1214.04423674 2610.72323153 1214.11252809 2603 1214.125 C2601.84258301 1214.12951172 2600.68516602 1214.13402344 2599.49267578 1214.13867188 C2590.25853547 1214.12260552 2590.25853547 1214.12260552 2585.71875 1213.5 C2581.60499596 1212.94689021 2577.64265531 1212.85272766 2573.5 1212.875 C2572.81164063 1212.87113281 2572.12328125 1212.86726563 2571.4140625 1212.86328125 C2566.5454295 1212.8719443 2561.72670706 1213.1524915 2556.87109375 1213.50439453 C2548.38507425 1214.06823698 2539.92788264 1214.11732656 2531.42610168 1214.07516479 C2528.76562709 1214.06211686 2526.10520376 1214.05581509 2523.44470215 1214.05102539 C2516.84366167 1214.037828 2510.24267116 1214.01358617 2503.6416626 1213.98962402 C2498.0364864 1213.96971221 2492.43132883 1213.95415233 2486.8261261 1213.94406128 C2484.23638438 1213.93769693 2481.64672321 1213.92519636 2479.05700684 1213.91235352 C2470.19637913 1213.88525294 2461.423679 1214.11539468 2452.58642578 1214.77734375 C2446.2259093 1215.17222401 2439.8707511 1215.0609181 2433.5 1215 C2424.00123478 1214.94179538 2414.5654384 1214.99918399 2405.09375 1215.78125 C2402 1216 2402 1216 2398.34375 1215.96875 C2395.23626111 1215.84861347 2395.23626111 1215.84861347 2393.27420044 1216.49684143 C2389.95158201 1217.23195866 2386.653516 1217.11313849 2383.26904297 1217.08178711 C2382.49448257 1217.07872055 2381.71992218 1217.07565399 2380.92189026 1217.07249451 C2379.24187052 1217.06534915 2377.56185914 1217.05596421 2375.88186264 1217.04459953 C2373.2155985 1217.02716994 2370.54939468 1217.01689626 2367.88308716 1217.00868225 C2360.30253385 1216.98427274 2352.72206129 1216.94885776 2345.14160156 1216.90405273 C2340.50099348 1216.8771265 2335.86043273 1216.86017554 2331.21976089 1216.84918404 C2329.4584593 1216.8430112 2327.69716646 1216.83305288 2325.93590927 1216.81910515 C2316.31272481 1216.74361959 2307.30703811 1216.95466258 2297.97872925 1219.56578064 C2295.25621262 1220.16321934 2292.59052913 1220.00437277 2289.81640625 1219.96875 C2286.58856807 1220.00456513 2283.4061518 1220.2521466 2280.1875 1220.5 C2272.49466841 1221.06728734 2264.83494127 1221.00321702 2257.125 1220.9375 C2248.34143071 1220.87237191 2239.82501592 1221.12895732 2231.11962891 1222.28222656 C2221.12425199 1223.57726951 2211.00386746 1223.5355127 2201.015625 1222.12109375 C2198.78996457 1221.98738159 2197.1443432 1222.43100596 2195 1223 C2193.741875 1222.979375 2192.48375 1222.95875 2191.1875 1222.9375 C2184.02460793 1222.84199477 2175.94462085 1223.54745544 2169.05859375 1225.5703125 C2165.69423552 1226.27255046 2162.29414526 1226.01050406 2158.875 1225.9375 C2151.58064445 1225.84795292 2144.50760092 1226.32165467 2137.27880859 1227.28881836 C2132.88430786 1227.86283786 2128.63000931 1228.06769217 2124.19848633 1228.01708984 C2114.96376011 1227.94530408 2106.21074325 1228.61584913 2097.3828125 1231.3828125 C2095.04399313 1231.98860506 2093.27061232 1232.07841837 2090.875 1231.9375 C2084.63388115 1232.03816321 2079.68860064 1234.74057381 2074.625 1238.25 C2072 1240 2072 1240 2069 1240 C2068.855625 1241.2375 2068.71125 1242.475 2068.5625 1243.75 C2068.32077164 1245.82195737 2068.06643486 1247.76939651 2067.48852539 1249.77539062 C2066.89535078 1252.47654359 2066.87028159 1254.96825475 2066.8671875 1257.734375 C2066.86428711 1259.41829346 2066.86428711 1259.41829346 2066.86132812 1261.13623047 C2066.86583984 1262.32877441 2066.87035156 1263.52131836 2066.875 1264.75 C2066.87790039 1266.59489014 2066.87790039 1266.59489014 2066.88085938 1268.47705078 C2066.91592161 1275.86252089 2067.20551334 1283.13542285 2067.78515625 1290.49609375 C2068.26111525 1298.21329674 2068.00291844 1305.98632874 2067.875 1313.71240234 C2067.80901895 1320.52036399 2068.26239754 1326.41857908 2070 1333 C2070.32065392 1337.32882788 2069.82270522 1341.14394458 2069 1345.375 C2067.39063825 1353.80988178 2068.0465261 1361.89521425 2068.73168945 1370.41674805 C2068.98620032 1373.88999833 2068.86378617 1376.65781196 2068 1380 C2068.03705147 1382.37699451 2068.15198033 1384.75314226 2068.3125 1387.125 C2068.35882568 1387.81859619 2068.40515137 1388.51219238 2068.45288086 1389.22680664 C2068.89224928 1395.37865003 2069.56357153 1401.50155767 2070.33911133 1407.61962891 C2070.8783847 1412.05501233 2071.05566669 1416.3697289 2071.00610352 1420.83666992 C2070.99704183 1424.04849433 2071.21716173 1427.2341206 2071.4375 1430.4375 C2071.72663992 1434.67605116 2072.00672157 1438.91131775 2072.18359375 1443.15625 C2072.70119965 1455.12053786 2074.06677559 1466.92991574 2075.59277344 1478.80419922 C2075.99396791 1481.9526618 2076.37775819 1485.10282933 2076.7578125 1488.25390625 C2077.86593338 1497.28465516 2079.11108687 1506.04657378 2081.37890625 1514.87109375 C2082.40372549 1520.03386236 2082.52081911 1525.21673381 2082.69140625 1530.46875 C2082.98583164 1533.83787093 2083.6288935 1535.95418484 2085 1539 C2088.80461857 1550.67571205 2090.31033092 1562.50562309 2091.67456055 1574.67260742 C2091.9778731 1576.84175861 2092.46639741 1578.87896383 2093 1581 C2093.42853844 1586.57099967 2092.84399474 1591.18127137 2090 1596 C2084.99941258 1601.62980041 2080.18637118 1604.61237304 2072.625 1605.3125 C2067.44438461 1604.86589523 2062.75857326 1603.78648712 2059.03125 1600 C2054.27590664 1596.86245386 2049.20899908 1596.79682019 2043.625 1596.25 C2041.95824219 1596.06244141 2041.95824219 1596.06244141 2040.2578125 1595.87109375 C2035.89547878 1595.3985076 2031.64845549 1594.99255427 2027.2578125 1595.04296875 C2023.06378416 1594.98765183 2019.30649112 1594.06259469 2015.25 1593.0625 C2008.47866058 1591.48224705 2001.95802839 1590.34935707 1995 1590 C1992.52067354 1589.85690902 1990.04152056 1589.71079634 1987.5625 1589.5625 C1986.89331543 1589.52358643 1986.22413086 1589.48467285 1985.53466797 1589.44458008 C1979.14998086 1589.05363528 1972.7990746 1588.40606051 1966.43945312 1587.72631836 C1961.81186449 1587.24227401 1957.21439464 1586.89155198 1952.56567383 1586.70727539 C1945.59931269 1586.42114941 1939.71533184 1585.2246465 1933.1328125 1582.9765625 C1928.93122857 1581.66684182 1924.75630007 1581.07983723 1920.40234375 1580.5 C1916.80549998 1579.97141676 1913.30276855 1579.20646551 1909.75 1578.4375 C1893.17977693 1575.13375385 1874.28826643 1574.26818086 1857.81640625 1578.5703125 C1855.15763689 1579.19926869 1852.52914378 1579.00357877 1849.8125 1578.96875 C1846.60638951 1579.00437345 1843.44685977 1579.25196778 1840.25 1579.5 C1831.08467953 1580.18155872 1821.91545416 1580.03253861 1812.73144531 1579.875 C1796.87114988 1579.71937977 1779.82277281 1581.92315447 1765.40234375 1588.92578125 C1762.17237934 1590.37007428 1758.85165299 1591.50281509 1755.5 1592.625 C1753.69015625 1593.23214844 1753.69015625 1593.23214844 1751.84375 1593.8515625 C1743.38646489 1596.47077594 1734.84686016 1597.65330069 1726.0625 1598.625 C1724.87479004 1598.7583374 1723.68708008 1598.8916748 1722.46337891 1599.02905273 C1714.82252928 1599.83615561 1707.34260423 1600.18702476 1699.66674805 1600.01220703 C1695.27622683 1599.92844017 1691.60609207 1600.38589743 1687.40234375 1601.54296875 C1677.61855295 1603.40427529 1667.15975928 1602.99551953 1658.6875 1597.5 C1655.20406622 1595.55575789 1651.68105997 1594.73649919 1647.828125 1593.7578125 C1645.3155061 1593.08454169 1642.9366079 1592.27777199 1640.5 1591.375 C1630.88372293 1588.15337768 1621.27613545 1589.09143363 1611.375 1590.3125 C1609.63089844 1590.50875977 1609.63089844 1590.50875977 1607.8515625 1590.70898438 C1603.10097202 1591.26519039 1598.48784201 1591.8695268 1593.84838867 1593.03662109 C1588.25065536 1594.30859653 1582.74647391 1594.3056715 1577.02734375 1594.30078125 C1575.34361412 1594.30720894 1575.34361412 1594.30720894 1573.62586975 1594.31376648 C1571.26515372 1594.3194817 1568.9044201 1594.32003089 1566.54370117 1594.31567383 C1562.94484373 1594.31250646 1559.3468034 1594.33603492 1555.74804688 1594.36132812 C1553.44531353 1594.36360075 1551.14257799 1594.36430478 1548.83984375 1594.36328125 C1547.771931 1594.372491 1546.70401825 1594.38170074 1545.60374451 1594.39118958 C1538.62044593 1594.34818344 1532.71287247 1593.72231135 1526.90625 1589.46484375 C1523 1585.22222222 1523 1585.22222222 1523 1583 C1507.11825284 1582.92979837 1491.23654785 1582.87695734 1475.35468388 1582.84456348 C1467.97981123 1582.82912007 1460.60503522 1582.80807913 1453.23022461 1582.77368164 C1446.79943236 1582.74370162 1440.36871013 1582.72440665 1433.93784994 1582.71773452 C1430.53536809 1582.71383675 1427.13308646 1582.70472982 1423.73066902 1582.68280983 C1419.92457412 1582.66098003 1416.11889174 1582.65803549 1412.31274414 1582.65942383 C1411.19496078 1582.648638 1410.07717743 1582.63785217 1408.92552185 1582.6267395 C1403.09840797 1582.64968487 1398.29209975 1583.17336989 1392.85745907 1585.34084606 C1390.12757848 1586.30959502 1387.67327627 1586.14983832 1384.8125 1585.9375 C1379.43344887 1585.79559036 1377.37906765 1586.78272581 1373 1590 C1368.73441105 1591.58111164 1364.38516479 1592.79727276 1360 1594 C1358.87078125 1594.34417969 1358.87078125 1594.34417969 1357.71875 1594.6953125 C1349.03704606 1597.0660855 1339.12182143 1596.95575786 1330.37890625 1594.99609375 C1321.95775949 1593.37083276 1313.36400999 1593.74058623 1304.82299805 1593.79418945 C1301.83698867 1593.81235105 1298.85129311 1593.81469911 1295.86523438 1593.81445312 C1284.86306356 1593.83536133 1273.97413042 1594.24866748 1263 1595 C1256.33262381 1595.42262749 1251.35607023 1594.45527477 1245.125 1592.0625 C1233.39676105 1587.57327177 1221.48272804 1587.77884445 1209.05273438 1587.5703125 C1202.67125364 1587.38273683 1197.83674993 1586.60152283 1192 1584 C1187.98506839 1582.66168946 1184.48355374 1583.3997137 1180.375 1583.9375 C1174.91776555 1584.64593496 1169.63131597 1585.07734486 1164.12597656 1585.00610352 C1160.96589666 1584.99703117 1157.8370253 1585.25642769 1154.6875 1585.5 C1150.01254781 1585.84654525 1145.38417501 1586.02697782 1140.6953125 1585.9609375 C1139.35400269 1585.94256836 1139.35400269 1585.94256836 1137.9855957 1585.92382812 C1136.23643314 1585.89187703 1134.48744866 1585.84682255 1132.73901367 1585.78710938 C1127.81064658 1585.69630938 1125.14366159 1586.10511314 1121 1589 C1103.42913566 1594.79912871 1083.62347127 1593.21564864 1065.35961914 1593.24023438 C1062.59776405 1593.24459214 1059.83622608 1593.25840514 1057.07446289 1593.28125 C1036.28212198 1593.44954893 1015.18884257 1593.31666811 994.86056519 1588.42555237 C992.20069 1587.81718014 989.51968504 1587.5129344 986.8125 1587.1875 C980.7162323 1586.30542626 975.36284088 1584.46244178 969.6796875 1582.12109375 C960.89544999 1579.44479209 951.59920015 1579.88835337 942.5 1580 C935.37871616 1580.08737772 928.4123175 1579.97834573 921.3269043 1579.20654297 C918.7765906 1578.93243972 918.7765906 1578.93243972 915.3125 1579.125 C911.12257705 1578.9668897 907.70364561 1577.96704734 904 1576 C903.401875 1575.278125 902.80375 1574.55625 902.1875 1573.8125 C897.4973482 1569.92637422 890.32938489 1571.8779084 884.59375 1572.35546875 C883.02044709 1572.50377056 881.44752107 1572.65612567 879.875 1572.8125 C879.13556152 1572.88227051 878.39612305 1572.95204102 877.63427734 1573.02392578 C872.98857197 1573.5414872 868.9307832 1574.63367511 864.53564453 1576.19506836 C858.17334035 1578.21475995 851.49162816 1579.2858895 844.94921875 1580.57421875 C836.6508838 1582.3158446 830.46958509 1585.06789775 823.43359375 1589.68359375 C820.13379249 1591.46855848 816.69248538 1592.24347823 813.0625 1593.0625 C809.21956105 1593.95595639 805.45210677 1594.84876144 801.70703125 1596.1015625 C792.44117855 1599.17680943 784.35063549 1594.27378065 776.19921875 1590.28125 C774 1589 774 1589 772.43359375 1587.38671875 C769.88968859 1584.92599305 766.37157085 1585.19970977 763 1585 C762.26007812 1584.93554688 761.52015625 1584.87109375 760.7578125 1584.8046875 C753.37481468 1584.42148692 748.74413579 1587.15298553 742.75 1591.1875 C735.96715892 1595.65800889 725.11062867 1595.02363107 717.34765625 1593.46875 C713.29068569 1592.03596193 710.22356563 1589.78794865 707 1587 C695.59562797 1578.76350909 677.42681851 1580.71208794 664.03759766 1580.5949707 C662.17185125 1580.57323798 660.30621077 1580.53895859 658.44091797 1580.49243164 C655.71536998 1580.42537867 652.99188127 1580.3979891 650.265625 1580.37890625 C649.43943665 1580.35107559 648.61324829 1580.32324493 647.76202393 1580.29457092 C643.15066513 1580.31087311 640.63418016 1580.88572752 637.10522461 1583.95532227 C636.30742836 1584.75897972 636.30742836 1584.75897972 635.49351501 1585.57887268 C631.39330267 1589.48035591 625.54390388 1589.37849244 620.1875 1589.625 C619.52685547 1589.66367188 618.86621094 1589.70234375 618.18554688 1589.7421875 C609.64480731 1590.20518984 601.3751145 1589.95739494 592.875 1589 C588.25973587 1588.48487248 583.75462652 1587.99697241 579.10546875 1588.015625 C576 1588 576 1588 572.4375 1586.75 C568.91266248 1585.57987092 568.91266248 1585.57987092 565.8125 1587.8125 C564.4203125 1588.8953125 564.4203125 1588.8953125 563 1590 C556.37087384 1592.55672995 545.009474 1591.003158 538.4375 1588.8125 C535.52488177 1587.27675584 534.16007431 1586.25692251 531.92578125 1584.03515625 C527.61791422 1580.28119845 523.28764798 1579.48441838 517.75 1578.625 C516.81051514 1578.46854004 515.87103027 1578.31208008 514.90307617 1578.15087891 C512.27231831 1577.73216764 509.63988603 1577.35593969 507 1577 C505.94941406 1576.85046875 504.89882813 1576.7009375 503.81640625 1576.546875 C496.99784826 1576.07883046 490.91060024 1578.44544904 484.63012695 1580.86474609 C479.97206873 1582.60641437 476.30139692 1583.14281711 471.34814453 1582.96679688 C466.94187429 1583.02910221 462.75684927 1584.1904349 458.5 1585.25 C457.61441406 1585.45496094 456.72882813 1585.65992188 455.81640625 1585.87109375 C450.6155178 1587.13122091 445.91839899 1588.8026746 441.07275391 1591.06347656 C428.76755773 1596.62328016 416.26036772 1596.88454559 403.0703125 1595.4765625 C394.70721161 1594.68353462 386.2931817 1594.96965877 377.90283203 1595.09594727 C353.35949259 1595.44006342 353.35949259 1595.44006342 345 1590 C330.55204194 1583.93634921 313.48891407 1587.05688856 298.47851562 1588.93212891 C292.94751531 1589.61660237 287.57502481 1590.1341934 282.00073242 1590.03027344 C274.5498846 1589.91753334 266.96092987 1590.64009086 259.55883789 1591.48754883 C247.87154624 1592.82305999 236.32020683 1593.34347547 224.55908203 1593.31567383 C221.70959142 1593.31245434 218.86108658 1593.33631663 216.01171875 1593.36132812 C214.16927211 1593.36359666 212.32682275 1593.3643067 210.484375 1593.36328125 C209.64783386 1593.372491 208.81129272 1593.38170074 207.94940186 1593.39118958 C201.52890594 1593.34093169 195.83897276 1592.32766549 190.72265625 1588.1328125 C190.17480469 1587.47023438 189.62695312 1586.80765625 189.0625 1586.125 C188.49660156 1585.46757813 187.93070313 1584.81015625 187.34765625 1584.1328125 C185.83814229 1581.74384259 185.38277521 1579.78117682 185 1577 C184.278125 1576.896875 183.55625 1576.79375 182.8125 1576.6875 C180 1576 180 1576 177.75 1574.4375 C168.90495922 1569.81395596 154.34022162 1574.13183712 145.375 1576.9375 C144.31925781 1577.28425781 143.26351562 1577.63101562 142.17578125 1577.98828125 C138.0217296 1579.31165072 133.81611134 1580.32472399 129.578125 1581.33984375 C126.8664428 1581.98578111 126.8664428 1581.98578111 123.8125 1583.1875 C121.17636963 1583.94904877 119.48697036 1584.05595057 116.7890625 1583.98828125 C112.62182922 1583.95020331 108.69144986 1584.39143421 104.5625 1585 C96.01099995 1586.0821196 87.44806688 1586.2527722 78.83981323 1586.29956055 C77.3380866 1586.3080932 75.83637894 1586.32165124 74.33474731 1586.34057617 C66.35179853 1586.43046096 58.95994151 1586.22667854 51.28173828 1583.71850586 C47.44444007 1582.5101634 43.88848313 1581.73014481 40 1583 C37.73027946 1585.11006339 35.87766685 1587.38720361 33.94140625 1589.8046875 C28.8480423 1595.56418556 20.99477959 1595.59112314 13.7578125 1596.47265625 C9.14038161 1597.12063252 4.57212933 1598.08557413 0 1599 C0 1071.33 0 543.66 0 0 Z " fill="#000000" transform="translate(0,0)"/>
<path d="M0 0 C2.27746743 0.20863974 4.54006597 0.34927817 6.82470703 0.44287109 C16.83309066 0.86448806 24.07516616 1.61814497 31.69189453 8.63037109 C33.66587968 10.34870212 35.71135607 11.74643022 37.90673828 13.16943359 C44.87524454 17.7125684 51.22280065 22.89576039 57.43408203 28.41552734 C59.75062313 30.42147076 62.13003313 32.3289031 64.53173828 34.23193359 C66.19940417 35.56401694 67.86610551 36.89730892 69.53173828 38.23193359 C70.27037109 38.81974609 71.00900391 39.40755859 71.77001953 40.01318359 C76.4881669 43.92275957 79.56968068 47.89394994 82.53173828 53.23193359 C82.99966797 53.91900391 83.46759766 54.60607422 83.94970703 55.31396484 C86.27711424 59.60673814 87.59078563 64.14122624 89.03173828 68.79443359 C89.32693359 69.720625 89.62212891 70.64681641 89.92626953 71.60107422 C90.82743396 74.46931783 91.68827278 77.34621609 92.53173828 80.23193359 C92.96522583 81.68925903 92.96522583 81.68925903 93.4074707 83.17602539 C95.43814687 90.51909008 95.96070411 97.32120288 95.84423828 104.91943359 C95.84907227 106.51368164 95.84907227 106.51368164 95.85400391 108.14013672 C95.81605536 113.73237318 95.38922394 118.84973228 94.01538086 124.2722168 C93.34646338 126.98266639 93.04913596 129.71224321 92.71923828 132.48193359 C91.12384664 143.16357922 86.57930651 152.77171138 81.53173828 162.23193359 C81.14244141 162.97958984 80.75314453 163.72724609 80.35205078 164.49755859 C72.66060109 178.87503972 61.99151067 191.90739248 48.53173828 201.23193359 C47.54173828 201.93318359 46.55173828 202.63443359 45.53173828 203.35693359 C42.33849303 205.35271188 39.0854143 207.18759993 35.77783203 208.98583984 C33.49215047 210.21484988 33.49215047 210.21484988 31.26741028 211.73608398 C22.99354593 216.26018511 11.988484 215.49776197 2.80126953 215.35693359 C1.64479416 215.34936035 0.48831879 215.34178711 -0.70320129 215.33398438 C-4.35421661 215.30981802 -8.00489501 215.27257135 -11.65576172 215.23193359 C-16.48257693 215.17844029 -21.30922825 215.13862213 -26.13623047 215.10693359 C-27.22501999 215.09033691 -28.31380951 215.07374023 -29.43559265 215.05664062 C-35.22224114 215.01982535 -40.41276875 215.50280084 -46.05168152 216.77331543 C-50.20001617 217.56058565 -54.32458363 217.5173609 -58.53466797 217.49755859 C-59.45360336 217.49947205 -60.37253876 217.5013855 -61.31932068 217.50335693 C-63.24616777 217.50470752 -65.17302432 217.50109059 -67.09985352 217.49267578 C-70.02690286 217.48194774 -72.95334032 217.49261608 -75.88037109 217.50537109 C-77.76513805 217.50404954 -79.64990464 217.50148723 -81.53466797 217.49755859 C-82.39741837 217.50160706 -83.26016876 217.50565552 -84.14906311 217.50982666 C-89.13769061 217.47184072 -93.63983361 216.89773454 -98.4841156 215.70877075 C-105.69512724 213.9757944 -113.20171105 214.17206496 -120.56420898 214.34887695 C-146.42719589 214.92743591 -146.42719589 214.92743591 -155.96826172 206.91943359 C-157.15231394 205.70700539 -158.31955414 204.47790017 -159.46826172 203.23193359 C-160.42152344 202.37728516 -160.42152344 202.37728516 -161.39404297 201.50537109 C-165.5947674 197.69601851 -168.6192922 193.98016471 -169.46826172 188.23193359 C-169.97849645 173.78591288 -166.67858982 159.67712072 -157.46826172 148.23193359 C-156.92169922 147.54744141 -156.37513672 146.86294922 -155.81201172 146.15771484 C-152.97939279 142.77788545 -150.01978251 139.76903672 -146.65576172 136.91943359 C-139.36682425 130.71033871 -132.83096072 123.78953547 -128.46826172 115.23193359 C-125.09021294 109.85388481 -125.09021294 109.85388481 -123.46826172 108.23193359 C-122.96897453 105.52670484 -122.56803458 102.81222373 -122.16357422 100.09130859 C-121.46826172 97.23193359 -121.46826172 97.23193359 -119.89794922 94.92333984 C-117.54706876 90.49777526 -118.33920887 85.98543432 -118.58544922 81.08935547 C-118.75829917 75.39971133 -117.8469573 71.42961216 -115.46826172 66.23193359 C-114.13492839 64.89860026 -112.80159505 63.56526693 -111.46826172 62.23193359 C-110.58712447 60.2462128 -109.88535418 58.23507619 -109.17919922 56.18115234 C-108.24886 53.63038713 -106.9583391 51.49685121 -105.46826172 49.23193359 C-104.89720703 48.32958984 -104.32615234 47.42724609 -103.73779297 46.49755859 C-101.25514354 42.92527818 -98.54579521 39.79001756 -95.59326172 36.60693359 C-95.08923828 36.04748047 -94.58521484 35.48802734 -94.06591797 34.91162109 C-90.82781083 31.40022102 -87.54585887 28.78115275 -83.46826172 26.23193359 C-82.32357422 25.24193359 -82.32357422 25.24193359 -81.15576172 24.23193359 C-78.76893753 22.45569234 -76.93160096 21.52451977 -74.21826172 20.41943359 C-69.72060094 18.53669187 -66.35342471 15.9059782 -62.60107422 12.83349609 C-60.65022277 11.36857101 -58.97352027 10.43286878 -56.71826172 9.54443359 C-53.45512354 8.41676724 -53.45512354 8.41676724 -51.15576172 6.32177734 C-37.23542941 -4.50289967 -16.38561496 -1.61822317 0 0 Z " fill="#000000" transform="translate(3370.46826171875,1380.76806640625)"/>
</svg>
